# xmcd CD database generated by RipIT
#
# Track frame offsets:
# 150
# 15408
# 56131
# 100339
#
# Disc length: 1572 seconds
#
# Revision: 0
# Processed by: cddbd v1.5.2PL0 Copyright (c) Steve Scherf et al.
# Submitted via: RipIT 4.0.0-beta20140508 www.suwald.com/ripit/ripit.html on 2019-08-29 at 11:00
#
DISCID=2a062204
DTITLE=Solstice - Death's Crown Is Victory
DYEAR=2013
DGENRE=Heavy Metal
TTITLE0=Fortress England
TTITLE1=I Am The Hunter
TTITLE2=Death's Crown Is Victory
TTITLE3=Aequinoctium II
EXTD=
EXTT0=
EXTT1=
EXTT2=
EXTT3=
PLAYORDER=
